<svg width="250" height="193" viewBox="0 0 250 193" fill="none" xmlns="http://www.w3.org/2000/svg">
<g id="Ebene 4">
<g id="&#60;Group&#62;">
<g id="&#60;Group&#62;_2">
<path id="&#60;Path&#62;" d="M134.5 179.714C130.214 183 144.643 195.143 109.214 182.357C73.8571 169.571 59.4286 125 52.2143 100.429C45 75.8572 64.3571 42.4286 77.1429 32.9286C89.9286 23.4286 113.5 19.5 116.143 19.1429C118.714 18.8572 122.357 17.2143 128.571 11C134.786 4.78573 154.429 -1.7857 168.571 1.14288C182.643 4.07145 217.714 37.5 240.929 84.7143C264.214 131.857 232.786 165.643 227.214 165.643C221.643 165.643 189.5 144 186.571 141.357C183.643 138.786 176.429 138.071 171.143 136.143C165.929 134.143 153.786 119.786 153.786 119.786C155.786 155.786 138.714 176.429 134.5 179.714Z" fill="#EAB363"/>
<path id="&#60;Path&#62;_2" d="M120.714 184.286C113.143 184.286 93.5 170.571 72.5714 141.714C51.5714 112.857 57.5 72.5715 57.5 72.5715C53.5714 133.857 125 181.357 125 181.357C125 181.357 128.214 184.286 120.714 184.286Z" fill="#8C5E28"/>
<path id="&#60;Path&#62;_3" d="M171.143 136.143C165.929 134.143 153.786 119.786 153.786 119.786C153.786 119.786 148.214 60.7858 153.786 34.9286C159.357 9.00004 162.286 8.71433 166.214 17.2143C169.786 24.8572 170.929 107.643 183.286 139.571C179.786 138.286 174.929 137.571 171.143 136.143Z" fill="#E2942D"/>
<path id="&#60;Path&#62;_4" d="M115.143 21.1429C115.143 21.1429 104 30.2857 101.714 31C99.4286 31.6429 73.5 45.0715 66.3571 59.1429C59.1429 73.2143 63.7143 51.6429 71.2143 44.0715C78.7857 36.5715 97.4286 23.0715 115.143 21.1429Z" fill="#8C5E28"/>
<path id="&#60;Path&#62;_5" d="M108.071 168.071C63.9286 192 11.6429 192.214 11.6429 192.214C17.5 177.429 0.571434 152.357 0.571434 152.357C49.2143 157.5 81.2143 139.571 81.2143 139.571C82.3572 141.071 108.071 168.071 108.071 168.071Z" fill="#E6E6E6"/>
<path id="&#60;Path&#62;_6" opacity="0.1" d="M108.071 168.071C94.5714 175.357 80.3571 180.429 67.0714 184C62.2143 166.643 50.9286 156.786 41.8571 151.5C66.5 147.786 81.2143 139.571 81.2143 139.571C82.3571 141.071 108.071 168.071 108.071 168.071Z" fill="black"/>
</g>
<path id="&#60;Path&#62;_7" d="M134.214 27.1429C127.286 40.3572 108.857 32.3572 113 32.1429C117.143 31.9286 129.571 14.8572 137.857 9.14286C146.214 3.42858 168.571 1.14286 171.071 4.71429C173.643 8.28572 166.5 8.85715 158.214 9.14286C149.857 9.35715 144.357 51.2857 144.357 51.2857C129.143 43.4286 141.143 13.9286 134.214 27.1429Z" fill="#F4CD9A"/>
</g>
</g>
</svg>
